# xmcd CD database file
# Copyright (C) 1993-1998 Ti Kan
#
# Track frame offsets:
#	150
#	17182
#	34017
#	55910
#	71310
#	93002
#	111890
#	128565
#	142752
#	164127
#	185737
#	198745
#
# Disc length: 2795 seconds
#
# Revision: 1
# Processed by: cddbd v1.4b41PL1 Copyright (c) Steve Scherf et al.
# Submitted via: CDValet v3.31 - Copyright (c) 1997 Greg Leichner
#
DISCID=a40ae90c
DTITLE=Lee McBee and The Passions - "44"
DYEAR=1900
DGENRE=
TTITLE0=Boogie Twist
TTITLE1=Rock This Joint
TTITLE2=Fourty-Four Blues
TTITLE3=Rooster Blues
TTITLE4=Call Me
TTITLE5=She Fooled Me
TTITLE6=Get Your Mind Out of the Gutter
TTITLE7=I Been Abused
TTITLE8=Everybody Loves My Baby
TTITLE9=Train Fate
TTITLE10=I'm Gonna Love You
TTITLE11=Keep What You Got
EXTD=Lee out on his own, after fronting Mike Morgan and the Cra
EXTD=wl, comes up with a formidable lineup with guitar greats A
EXTD=nson Funderburgh and Kid Ramos, Kevin McKendree handling t
EXTD=he piano, Willie Campbell upright and electric bass and St
EXTD=ephen Hodges percussion
EXTT0=
EXTT1=
EXTT2=
EXTT3=
EXTT4=
EXTT5=
EXTT6=
EXTT7=
EXTT8=
EXTT9=
EXTT10=
EXTT11=
PLAYORDER=
